<svg version="1.0" xmlns="http://www.w3.org/2000/svg" width="300.000000pt" height="300.000000pt" viewBox="0 0 300.000000 300.000000" preserveAspectRatio="xMidYMid meet">
  <g transform="translate(0.000000,300.000000) scale(0.100000,-0.100000)" fill="#000" stroke="#000">
    <path  d="M1306 2455 c-331 -68 -604 -275 -735 -557 -59 -126 -83 -230 -88 -388 -8 -213 37 -391 147 -585 40 -71 218 -275 240 -275 4 0 49 72 99 160 l93 161 -26 20 c-41 32 -115 143 -147 218 -16 38 -36 113 -45 166 -14 83 -15 110 -5 184 35 248 197 440 435 517 108 35 272 44 366 20 36 -9 66 -13 67 -9 2 4 43 77 92 161 l90 153 -27 10 c-107 41 -171 51 -327 55 -112 2 -181 -1 -229 -11z m414 -34 c93 -27 110 -34 110 -46 0 -8 -31 -67 -69 -132 -72 -122 -79 -129 -131 -110 -41 14 -220 10 -293 -7 -90 -21 -158 -50 -237 -102 -258 -168 -358 -473 -255 -779 26 -79 88 -188 136 -239 16 -17 29 -38 29 -48 0 -16 -114 -222 -137 -245 -21 -23 -104 57 -186 182 -63 95 -89 149 -127 266 -76 231 -62 505 34 715 129 279 377 472 701 545 117 26 331 26 425 0z"/>
    <path d="M2080 2177 c-25 -44 -66 -116 -92 -160 l-48 -80 60 -63 c66 -71 127 -187 156 -294 27 -102 23 -255 -10 -356 -61 -190 -209 -334 -411 -401 -70 -23 -96 -27 -215 -27 -100 0 -146 4 -177 16 l-43 16 -72 -127 c-39 -69 -80 -138 -90 -153 -10 -14 -18 -31 -18 -36 0 -16 97 -49 197 -68 120 -22 345 -15 456 15 445 119 731 450 762 882 24 321 -123 677 -363 877 l-47 40 -45 -81z m139 -44 c154 -161 254 -382 281 -618 50 -454 -207 -852 -645 -1000 -202 -68 -448 -75 -633 -18 -28 9 -52 22 -52 29 0 12 94 181 130 234 15 22 17 22 93 10 231 -38 469 36 626 192 140 138 208 336 183 527 -20 151 -69 269 -156 376 -60 75 -63 84 -42 118 7 12 39 66 70 120 31 53 62 97 69 97 6 0 41 -30 76 -67z"/>
    <path d="M1408 1821 c-105 -35 -179 -104 -230 -216 -34 -76 -32 -199 5 -278 36 -78 77 -129 135 -165 189 -121 436 -54 534 146 30 61 33 74 33 162 0 82 -4 103 -27 152 -34 73 -107 146 -180 182 -77 37 -188 45 -270 17z m167 -22 c79 -14 143 -48 189 -100 103 -114 119 -271 41 -404 -36 -62 -70 -92 -142 -127 -52 -25 -74 -29 -135 -29 -139 1 -248 65 -305 180 -52 105 -41 256 25 347 39 53 129 114 194 129 68 17 64 17 133 4z"/>
  </g>
</svg>
